<?xml version="1.0" encoding="UTF-8"?>
<!DOCTYPE svg PUBLIC "-//W3C//DTD SVG 1.1//EN" "http://www.w3.org/Graphics/SVG/1.1/DTD/svg11.dtd">
<svg version="1.2" viewBox="-1 -1 29975 30451" preserveAspectRatio="xMidYMid" fill-rule="evenodd" stroke-width="28.222" stroke-linejoin="round" xmlns="http://www.w3.org/2000/svg" xmlns:ooo="http://xml.openoffice.org/svg/export" xmlns:xlink="http://www.w3.org/1999/xlink" xmlns:presentation="http://sun.com/xmlns/staroffice/presentation" xmlns:smil="http://www.w3.org/2001/SMIL20/" xmlns:anim="urn:oasis:names:tc:opendocument:xmlns:animation:1.0" xml:space="preserve">
 <defs class="EmbeddedBulletChars">
  <g id="bullet-char-template-57356" transform="scale(0.00048828125,-0.00048828125)">
   <path d="M 580,1141 L 1163,571 580,0 -4,571 580,1141 Z"/>
  </g>
  <g id="bullet-char-template-57354" transform="scale(0.00048828125,-0.00048828125)">
   <path d="M 8,1128 L 1137,1128 1137,0 8,0 8,1128 Z"/>
  </g>
  <g id="bullet-char-template-10146" transform="scale(0.00048828125,-0.00048828125)">
   <path d="M 174,0 L 602,739 174,1481 1456,739 174,0 Z M 1358,739 L 309,1346 659,739 1358,739 Z"/>
  </g>
  <g id="bullet-char-template-10132" transform="scale(0.00048828125,-0.00048828125)">
   <path d="M 2015,739 L 1276,0 717,0 1260,543 174,543 174,936 1260,936 717,1481 1274,1481 2015,739 Z"/>
  </g>
  <g id="bullet-char-template-10007" transform="scale(0.00048828125,-0.00048828125)">
   <path d="M 0,-2 C -7,14 -16,27 -25,37 L 356,567 C 262,823 215,952 215,954 215,979 228,992 255,992 264,992 276,990 289,987 310,991 331,999 354,1012 L 381,999 492,748 772,1049 836,1024 860,1049 C 881,1039 901,1025 922,1006 886,937 835,863 770,784 769,783 710,716 594,584 L 774,223 C 774,196 753,168 711,139 L 727,119 C 717,90 699,76 672,76 641,76 570,178 457,381 L 164,-76 C 142,-110 111,-127 72,-127 30,-127 9,-110 8,-76 1,-67 -2,-52 -2,-32 -2,-23 -1,-13 0,-2 Z"/>
  </g>
  <g id="bullet-char-template-10004" transform="scale(0.00048828125,-0.00048828125)">
   <path d="M 285,-33 C 182,-33 111,30 74,156 52,228 41,333 41,471 41,549 55,616 82,672 116,743 169,778 240,778 293,778 328,747 346,684 L 369,508 C 377,444 397,411 428,410 L 1163,1116 C 1174,1127 1196,1133 1229,1133 1271,1133 1292,1118 1292,1087 L 1292,965 C 1292,929 1282,901 1262,881 L 442,47 C 390,-6 338,-33 285,-33 Z"/>
  </g>
  <g id="bullet-char-template-9679" transform="scale(0.00048828125,-0.00048828125)">
   <path d="M 813,0 C 632,0 489,54 383,161 276,268 223,411 223,592 223,773 276,916 383,1023 489,1130 632,1184 813,1184 992,1184 1136,1130 1245,1023 1353,916 1407,772 1407,592 1407,412 1353,268 1245,161 1136,54 992,0 813,0 Z"/>
  </g>
  <g id="bullet-char-template-8226" transform="scale(0.00048828125,-0.00048828125)">
   <path d="M 346,457 C 273,457 209,483 155,535 101,586 74,649 74,723 74,796 101,859 155,911 209,963 273,989 346,989 419,989 480,963 531,910 582,859 608,796 608,723 608,648 583,586 532,535 482,483 420,457 346,457 Z"/>
  </g>
  <g id="bullet-char-template-8211" transform="scale(0.00048828125,-0.00048828125)">
   <path d="M -4,459 L 1135,459 1135,606 -4,606 -4,459 Z"/>
  </g>
  <g id="bullet-char-template-61548" transform="scale(0.00048828125,-0.00048828125)">
   <path d="M 173,740 C 173,903 231,1043 346,1159 462,1274 601,1332 765,1332 928,1332 1067,1274 1183,1159 1299,1043 1357,903 1357,740 1357,577 1299,437 1183,322 1067,206 928,148 765,148 601,148 462,206 346,322 231,437 173,577 173,740 Z"/>
  </g>
 </defs>
 <g ooo:name="page1" class="Page">
  <g class="com.sun.star.drawing.PolyPolygonShape">
   <g id="id3">
    <rect class="BoundingBox" stroke="none" fill="none" x="-1" y="-1" width="29975" height="30451"/>
    <path fill="rgb(114,159,207)" fill-opacity="0.149" stroke="rgb(255,255,255)" stroke-opacity="0.149" d="M 27432,22352 L 27276,22561 27095,22760 26664,23128 26150,23461 25567,23763 24926,24038 22860,24892 18796,25146 15494,24892 10785,23170 10389,22861 9918,22465 8918,21577 7635,20128 7354,19639 7043,19044 6719,18358 6397,17593 6149,16021 6310,14537 6441,13024 7404,11167 7949,10413 9127,8629 11176,6858 13208,6858 16256,6858 19304,8128 21336,10414 22352,13970 21590,16510 20320,18288 18034,19304 16002,19304 14986,18796 15240,17018 16002,17272 17780,17780 18858,17526 19558,17018 20320,14224 19304,11176 16510,9906 14478,10160 13462,10922 12446,12192 11430,14224 11938,17272 13716,19812 17526,21336 22606,19812 24892,15494 24638,11176 22352,7366 16903,4938 11631,5205 9513,6025 8616,7224 8204,7749 6555,9605 6075,10321 5219,11701 4754,13433 4787,14090 4848,14773 4995,15965 5211,17115 5558,18112 5920,19069 6242,19849 6471,20255 7054,21232 7602,22135 7788,22446 8386,23270 8763,23622 9203,23990 9684,24344 11684,25360 12700,25781 13716,26202 14732,26670 14240,30448 13247,30350 12265,30188 11296,29962 10344,29673 9412,29323 8503,28911 7620,28439 6770,27910 5959,27329 5190,26697 4464,26017 3784,25291 3152,24522 2571,23711 2042,22861 1570,21978 1158,21069 808,20137 519,19185 293,18217 131,17234 33,16241 0,15241 33,14240 131,13247 293,12265 519,11296 808,10344 1158,9412 1570,8503 2042,7620 2571,6770 3152,5959 3784,5190 4464,4464 5189,3784 5959,3152 6770,2571 7620,2042 8503,1570 9412,1158 10344,808 11296,519 12264,293 13247,131 14240,33 15240,0 16241,43 17234,169 18216,371 19185,641 20136,975 21068,1364 21977,1804 22860,2286 23700,2826 24483,3437 25213,4112 25895,4840 26530,5614 27122,6426 27676,7267 28194,8128 28434,8590 28655,9099 29036,10217 29345,11396 29585,12553 29882,14455 29972,15240 29361,18387 29124,19343 29009,19715 28893,20034 28770,20315 28638,20571 28329,21062 27432,22352 Z"/>
    <path fill="none" stroke="rgb(52,101,164)" d="M 27432,22352 L 27276,22561 27095,22760 26664,23128 26150,23461 25567,23763 24926,24038 22860,24892 18796,25146 15494,24892 10785,23170 10389,22861 9918,22465 8918,21577 7635,20128 7354,19639 7043,19044 6719,18358 6397,17593 6149,16021 6310,14537 6441,13024 7404,11167 7949,10413 9127,8629 11176,6858 13208,6858 16256,6858 19304,8128 21336,10414 22352,13970 21590,16510 20320,18288 18034,19304 16002,19304 14986,18796 15240,17018 16002,17272 17780,17780 18858,17526 19558,17018 20320,14224 19304,11176 16510,9906 14478,10160 13462,10922 12446,12192 11430,14224 11938,17272 13716,19812 17526,21336 22606,19812 24892,15494 24638,11176 22352,7366 16903,4938 11631,5205 9513,6025 8616,7224 8204,7749 6555,9605 6075,10321 5219,11701 4754,13433 4787,14090 4848,14773 4995,15965 5211,17115 5558,18112 5920,19069 6242,19849 6471,20255 7054,21232 7602,22135 7788,22446 8386,23270 8763,23622 9203,23990 9684,24344 11684,25360 12700,25781 13716,26202 14732,26670 14240,30448 13247,30350 12265,30188 11296,29962 10344,29673 9412,29323 8503,28911 7620,28439 6770,27910 5959,27329 5190,26697 4464,26017 3784,25291 3152,24522 2571,23711 2042,22861 1570,21978 1158,21069 808,20137 519,19185 293,18217 131,17234 33,16241 0,15241 33,14240 131,13247 293,12265 519,11296 808,10344 1158,9412 1570,8503 2042,7620 2571,6770 3152,5959 3784,5190 4464,4464 5189,3784 5959,3152 6770,2571 7620,2042 8503,1570 9412,1158 10344,808 11296,519 12264,293 13247,131 14240,33 15240,0 16241,43 17234,169 18216,371 19185,641 20136,975 21068,1364 21977,1804 22860,2286 23700,2826 24483,3437 25213,4112 25895,4840 26530,5614 27122,6426 27676,7267 28194,8128 28434,8590 28655,9099 29036,10217 29345,11396 29585,12553 29882,14455 29972,15240 29361,18387 29124,19343 29009,19715 28893,20034 28770,20315 28638,20571 28329,21062 27432,22352 Z"/>
   </g>
  </g>
 </g>
</svg>